<svg width="136" height="30" viewBox="0 0 136 30" fill="none" xmlns="http://www.w3.org/2000/svg">
<path d="M43.376 24.24C42.048 24.24 40.864 23.952 39.824 23.376C38.8 22.784 37.992 21.976 37.4 20.952C36.808 19.928 36.512 18.768 36.512 17.472V7.128H39.776V17.568C39.776 18.32 39.928 18.968 40.232 19.512C40.552 20.056 40.984 20.48 41.528 20.784C42.088 21.072 42.704 21.216 43.376 21.216C44.064 21.216 44.672 21.072 45.2 20.784C45.728 20.48 46.144 20.056 46.448 19.512C46.768 18.968 46.928 18.328 46.928 17.592V7.128H50.216V17.496C50.216 18.792 49.92 19.952 49.328 20.976C48.736 21.984 47.928 22.784 46.904 23.376C45.896 23.952 44.72 24.24 43.376 24.24ZM61.2389 24.24C60.0389 24.24 58.9109 24.024 57.8549 23.592C56.8149 23.144 55.8949 22.52 55.0949 21.72C54.3109 20.92 53.6949 20 53.2469 18.96C52.8149 17.904 52.5989 16.768 52.5989 15.552C52.5989 14.32 52.8229 13.184 53.2709 12.144C53.7189 11.088 54.3429 10.168 55.1429 9.384C55.9429 8.584 56.8789 7.968 57.9509 7.536C59.0229 7.088 60.1829 6.864 61.4309 6.864C62.8229 6.864 64.1029 7.128 65.2709 7.656C66.4389 8.168 67.4069 8.896 68.1749 9.84L65.9669 12.048C65.4389 11.36 64.7829 10.832 63.9989 10.464C63.2149 10.096 62.3509 9.912 61.4069 9.912C60.3349 9.912 59.3829 10.152 58.5509 10.632C57.7349 11.096 57.0949 11.752 56.6309 12.6C56.1669 13.432 55.9349 14.408 55.9349 15.528C55.9349 16.648 56.1589 17.64 56.6069 18.504C57.0709 19.352 57.6949 20.016 58.4789 20.496C59.2789 20.976 60.1909 21.216 61.2149 21.216C62.2709 21.216 63.1749 21.024 63.9269 20.64C64.6789 20.24 65.2549 19.664 65.6549 18.912C66.0549 18.144 66.2549 17.208 66.2549 16.104L68.3909 17.568L61.0229 17.496V14.664H69.6149V15.12C69.6149 17.136 69.2549 18.824 68.5349 20.184C67.8149 21.528 66.8229 22.544 65.5589 23.232C64.3109 23.904 62.8709 24.24 61.2389 24.24ZM80.2256 24.264C78.9936 24.264 77.8416 24.04 76.7696 23.592C75.7136 23.144 74.7856 22.528 73.9856 21.744C73.2016 20.944 72.5856 20.016 72.1376 18.96C71.6896 17.888 71.4656 16.744 71.4656 15.528C71.4656 14.312 71.6816 13.184 72.1136 12.144C72.5616 11.088 73.1776 10.168 73.9616 9.384C74.7616 8.584 75.6896 7.968 76.7456 7.536C77.8016 7.088 78.9456 6.864 80.1776 6.864C81.4256 6.864 82.5776 7.088 83.6336 7.536C84.6896 7.968 85.6096 8.584 86.3936 9.384C87.1936 10.168 87.8176 11.088 88.2656 12.144C88.7136 13.2 88.9376 14.336 88.9376 15.552C88.9376 16.768 88.7136 17.904 88.2656 18.96C87.8176 20.016 87.1936 20.944 86.3936 21.744C85.6096 22.528 84.6896 23.144 83.6336 23.592C82.5936 24.04 81.4576 24.264 80.2256 24.264ZM80.1776 21.216C81.2656 21.216 82.2096 20.976 83.0096 20.496C83.8096 20.016 84.4336 19.352 84.8816 18.504C85.3456 17.656 85.5776 16.664 85.5776 15.528C85.5776 14.696 85.4496 13.936 85.1936 13.248C84.9376 12.56 84.5696 11.968 84.0896 11.472C83.6096 10.96 83.0416 10.568 82.3856 10.296C81.7296 10.024 80.9936 9.888 80.1776 9.888C79.1216 9.888 78.1856 10.128 77.3696 10.608C76.5696 11.072 75.9376 11.728 75.4736 12.576C75.0256 13.424 74.8016 14.408 74.8016 15.528C74.8016 16.376 74.9296 17.152 75.1856 17.856C75.4576 18.56 75.8256 19.16 76.2896 19.656C76.7696 20.152 77.3376 20.536 77.9936 20.808C78.6656 21.08 79.3936 21.216 80.1776 21.216ZM92.552 24.24C91.976 24.24 91.504 24.048 91.136 23.664C90.768 23.28 90.584 22.808 90.584 22.248C90.584 21.688 90.768 21.216 91.136 20.832C91.504 20.448 91.976 20.256 92.552 20.256C93.112 20.256 93.576 20.448 93.944 20.832C94.312 21.216 94.496 21.688 94.496 22.248C94.496 22.808 94.312 23.28 93.944 23.664C93.576 24.048 93.112 24.24 92.552 24.24ZM102.015 24.24C100.943 24.24 99.9826 23.976 99.1346 23.448C98.2866 22.92 97.6146 22.2 97.1186 21.288C96.6386 20.376 96.3986 19.352 96.3986 18.216C96.3986 17.064 96.6386 16.032 97.1186 15.12C97.6146 14.208 98.2786 13.488 99.1106 12.96C99.9586 12.432 100.927 12.168 102.015 12.168C102.847 12.168 103.591 12.336 104.247 12.672C104.919 13.008 105.455 13.48 105.855 14.088C106.271 14.68 106.495 15.352 106.527 16.104V20.232C106.495 20.984 106.279 21.664 105.879 22.272C105.479 22.88 104.943 23.36 104.271 23.712C103.599 24.064 102.847 24.24 102.015 24.24ZM102.543 21.336C103.135 21.336 103.647 21.208 104.079 20.952C104.527 20.68 104.871 20.312 105.111 19.848C105.367 19.368 105.495 18.816 105.495 18.192C105.495 17.584 105.367 17.048 105.111 16.584C104.871 16.104 104.527 15.736 104.079 15.48C103.647 15.208 103.143 15.072 102.567 15.072C101.975 15.072 101.455 15.208 101.007 15.48C100.575 15.752 100.231 16.12 99.9746 16.584C99.7346 17.048 99.6146 17.584 99.6146 18.192C99.6146 18.816 99.7346 19.368 99.9746 19.848C100.231 20.312 100.583 20.68 101.031 20.952C101.479 21.208 101.983 21.336 102.543 21.336ZM108.447 24H105.327V20.88L105.831 18.048L105.303 15.264V6.648H108.447V24ZM116.772 24.24C115.556 24.24 114.476 23.984 113.532 23.472C112.588 22.944 111.836 22.224 111.276 21.312C110.732 20.4 110.46 19.36 110.46 18.192C110.46 17.04 110.724 16.016 111.252 15.12C111.796 14.208 112.532 13.488 113.46 12.96C114.388 12.416 115.42 12.144 116.556 12.144C117.676 12.144 118.66 12.4 119.508 12.912C120.372 13.408 121.044 14.096 121.524 14.976C122.02 15.84 122.268 16.824 122.268 17.928C122.268 18.136 122.252 18.352 122.22 18.576C122.204 18.784 122.164 19.024 122.1 19.296L112.356 19.32V16.968L120.636 16.944L119.364 17.928C119.332 17.24 119.204 16.664 118.98 16.2C118.772 15.736 118.46 15.384 118.044 15.144C117.644 14.888 117.148 14.76 116.556 14.76C115.932 14.76 115.388 14.904 114.924 15.192C114.46 15.464 114.1 15.856 113.844 16.368C113.604 16.864 113.484 17.456 113.484 18.144C113.484 18.848 113.612 19.464 113.868 19.992C114.14 20.504 114.524 20.904 115.02 21.192C115.516 21.464 116.092 21.6 116.748 21.6C117.34 21.6 117.876 21.504 118.356 21.312C118.836 21.104 119.252 20.8 119.604 20.4L121.452 22.248C120.892 22.904 120.204 23.4 119.388 23.736C118.588 24.072 117.716 24.24 116.772 24.24ZM127.793 24L122.681 12.408H126.137L129.809 21.96H128.105L131.801 12.408H135.137L130.049 24H127.793Z" fill="#1A202C"/>
<path d="M0 14.6585L6 14.6585L12.6 26.5563L6.6 26.5563L0 14.6585Z" fill="#913BC2"/>
<path d="M6.60005 3.32732L12 3.32732L6.00005 14.6585L4.7181e-05 14.6585L6.60005 3.32732Z" fill="#B026FF"/>
<path d="M23.9999 14.6586L29.9999 14.6586L23.9999 26.5563L18 26.5563L23.9999 14.6586Z" fill="#913BC2"/>
<path d="M18.5 14.5L12 14.5L17.5 3.49999L21 9.00002L18.5 14.5Z" fill="#913BC2"/>
<path d="M17.4 3.32733L23.4 3.32733L30 14.6586L24 14.6586L17.4 3.32733Z" fill="#B026FF"/>
<path d="M12.5 26.5L9 20.5L12 14.5L18.5 14.5L12.5 26.5Z" fill="#B026FF"/>
</svg>
